<?xml version="1.0" encoding="UTF-8"?>
<svg id="Layer_1" data-name="Layer 1" xmlns="http://www.w3.org/2000/svg" viewBox="0 0 219.07 211.64">
  <defs>
    <style>
      .cls-1 {
        fill: red;
      }
    </style>
  </defs>
  <path id="home" class="cls-1" d="M215.27,100.38L118.67,3.78c-5.04-5.04-13.22-5.04-18.25,0L3.81,100.38c-8.13,8.13-2.37,22.03,9.13,22.03h24.61v80.1c0,5.02,4.11,9.13,9.12,9.13h37.54v-64.61c0-3.33,2.72-6.06,6.06-6.06h38.55c3.33,0,6.06,2.73,6.06,6.06v64.61h37.52c5.02,0,9.13-4.11,9.13-9.13v-80.1h24.61c11.5,0,17.26-13.9,9.13-22.03ZM109.54,48.05c18.81,0,34.35,14.04,36.7,32.22h-25.33c-1.88-4.44-6.26-7.54-11.37-7.54s-9.5,3.1-11.37,7.54h-25.34c2.36-18.18,17.9-32.22,36.71-32.22ZM117.31,84.92c0,1.07-.22,2.07-.6,2.99-1.17,2.81-3.94,4.78-7.17,4.78s-6.01-1.97-7.17-4.78c-.39-.92-.6-1.92-.6-2.99,0-1.53.45-2.97,1.22-4.18,1.39-2.15,3.8-3.58,6.55-3.58s5.17,1.43,6.54,3.58c.78,1.21,1.23,2.65,1.23,4.18ZM109.54,122.08c-19.28,0-35.12-14.76-36.85-33.58h25c1.48,5.14,6.22,8.9,11.85,8.9s10.37-3.76,11.86-8.9h24.99c-1.73,18.82-17.57,33.58-36.85,33.58Z"/>
</svg>