<?xml version="1.0" encoding="UTF-8"?>
<svg id="Layer_1" data-name="Layer 1" xmlns="http://www.w3.org/2000/svg" viewBox="0 0 191.16 192">
  <defs>
    <style>
      .cls-1 {
        fill: red;
      }
    </style>
  </defs>
  <g id="pokeball">
    <path id="meio" class="cls-1" d="M112.55,84.78c2.01,3.13,3.18,6.86,3.18,10.85,0,2.75-.55,5.36-1.55,7.75-3.02,7.28-10.22,12.4-18.59,12.4s-15.58-5.12-18.6-12.4c-1-2.39-1.55-5-1.55-7.75,0-3.99,1.17-7.72,3.18-10.85,3.57-5.59,9.84-9.29,16.97-9.29s13.39,3.7,16.96,9.29Z"/>
    <path id="cima" class="cls-1" d="M66.09,83.55H.38C6.48,36.41,46.78,0,95.58,0s89.1,36.41,95.2,83.55h-65.71c-4.86-11.49-16.23-19.55-29.49-19.55s-24.64,8.06-29.49,19.55Z"/>
    <path id="baixo" class="cls-1" d="M191.16,104.89c-4.47,48.85-45.57,87.11-95.58,87.11S4.47,153.74,0,104.89h64.83c3.85,13.35,16.16,23.11,30.75,23.11s26.9-9.76,30.75-23.11h64.83Z"/>
  </g>
</svg>