<?xml version="1.0" encoding="UTF-8"?>
<svg id="Layer_1" data-name="Layer 1" xmlns="http://www.w3.org/2000/svg" viewBox="0 0 202.12 202">
  <defs>
    <style>
      .cls-1 {
        stroke-width: 5px;
      }

      .cls-1, .cls-2 {
        fill: none;
        stroke: red;
        stroke-miterlimit: 10;
      }

      .cls-2 {
        stroke-width: 10px;
      }
    </style>
  </defs>
  <g id="pokeball">
    <path id="meio" class="cls-1" d="M118.03,89.78c2.01,3.13,3.18,6.86,3.18,10.85,0,2.75-.55,5.36-1.55,7.75-3.02,7.28-10.22,12.4-18.59,12.4s-15.58-5.12-18.6-12.4c-1-2.39-1.55-5-1.55-7.75,0-3.99,1.17-7.72,3.18-10.85,3.57-5.59,9.84-9.29,16.97-9.29s13.39,3.7,16.96,9.29Z"/>
    <path id="cima" class="cls-2" d="M71.57,88.55H5.86C11.96,41.41,52.26,5,101.06,5s89.1,36.41,95.2,83.55h-65.71c-4.86-11.49-16.23-19.55-29.49-19.55s-24.64,8.06-29.49,19.55Z"/>
    <path id="baixo" class="cls-2" d="M196.64,109.89c-4.47,48.85-45.57,87.11-95.58,87.11S9.95,158.74,5.48,109.89h64.83c3.85,13.35,16.16,23.11,30.75,23.11s26.9-9.76,30.75-23.11h64.83Z"/>
  </g>
</svg>