<?xml version="1.0" encoding="UTF-8"?>
<svg id="Layer_1" data-name="Layer 1" xmlns="http://www.w3.org/2000/svg" viewBox="0 0 187.16 187.13">
  <defs>
    <style>
      .cls-1 {
        fill: red;
      }
    </style>
  </defs>
  <g id="sobre">
    <path id="cima" class="cls-1" d="M150.78,19.41C114.43-8.62,62.9-5.97,29.71,25.23l22.63,17.46-2.4-11.21c12.31-2.79,25.05-4.19,38.2-4.19,4.78,0,8.8.14,12.05.4,8.37.54,14.95,1.97,19.73,4.3,5.96,2.76,10.27,6.72,12.91,11.88,3.05,6,4.59,13.65,4.59,22.94,0,12.17-3.08,21.07-9.23,26.7-.01,2.35-.25,4.74-.75,7.09l48.47,37.39c21.75-40.03,11.22-90.55-25.13-118.58ZM121.79,102.57l.43-1.61c.33-1.28.58-2.56.74-3.84-3.12,1.6-7.11,2.97-11.99,4.11-.53.15-1.18.31-1.95.46-4.93,1.15-8.26,2.22-9.98,3.21-2.6,1.57-3.98,3.81-4.13,6.71l-.44,11.3c5.87-.15,11.71-2.03,16.65-5.66l1.52-1.11,53.51,41.27c3.61-4.08,6.87-8.46,9.75-13.11l-54.11-41.73ZM112.18,56.8c-.85-2.46-2.38-4.48-4.59-6.05-2.26-1.6-5.15-2.69-8.66-3.27-3.45-.61-8.13-.92-14.06-.92-8.88,0-17.27.6-25.17,1.8l18.48,14.25c11.33-5.7,24.82-4.73,35.23,2.54-.1-3.44-.51-6.22-1.23-8.35ZM111.69,70.09c-9.41-7.27-22.18-8.18-32.53-2.33l-1.44.81L23.61,26.84c-3.75,3.95-7.18,8.22-10.22,12.76l53.53,41.28-.7,1.74c-4.75,12.04-.98,25.95,9.17,33.97l-.21-5.55c-.12-2.18-.17-3.75-.17-4.7,0-6.77,1.6-11.53,4.81-14.29,2.76-2.33,6.49-3.88,11.19-4.64.46-.08,1.29-.21,2.5-.4,1.2-.2,2.11-.35,2.72-.46.61-.12,1.4-.28,2.35-.49.96-.21,1.83-.43,2.61-.66.78-.23,1.54-.5,2.27-.8,5.54-2.01,8.77-6.44,9.7-13.3-.47-.41-.96-.82-1.47-1.21Z"/>
    <path id="baixo" class="cls-1" d="M112.52,122.36c-10.85,7.06-24.87,7.37-36,1.01-.31-.17-.61-.35-.9-.53-1.03-.63-2.04-1.32-3.01-2.07-11.6-8.95-16.26-24.42-11.68-38.2L13.24,45.79c-24.24,40.67-14.46,92.55,23.34,121.7,37.79,29.14,90.45,25.42,123.63-8.35l-47.69-36.78ZM95.48,160.89c-1.83,1.87-5.31,2.81-10.44,2.81s-8.56-.94-10.44-2.81c-1.83-1.88-2.75-5.36-2.75-10.44s.94-8.51,2.81-10.39c1.91-1.91,5.37-2.86,10.38-2.86s8.47.95,10.39,2.86c1.91,1.92,2.86,5.38,2.86,10.39s-.93,8.56-2.81,10.44Z"/>
  </g>
</svg>