<?xml version="1.0" encoding="UTF-8"?>
<svg id="Layer_1" data-name="Layer 1" xmlns="http://www.w3.org/2000/svg" viewBox="0 0 415.11 206.24">
  <path id="grass4" d="M173.74,162.38s-40.24-63.72-86.9-41.3c54.26-37.43,89.65-9.48,102.14-2.46,17.41-26.29-45.67-76.26-45.67-76.26,0,0,79.39,21.83,82.16,92.2,14.18-45.52,14.83-72.12-.25-114.6,26.64,61.78,26.19,81.79,23.76,122.72,14.62-30.95,47.66-41.53,41.29-100.59,0,0,21.59,81.04-17,106.55s-99.53,13.74-99.53,13.74Z"/>
  <path id="grass3" d="M53.33,166.49S51.56,91.14,0,86.41c65.78-4.23,81.78,37.93,88.89,50.37,28.44-13.61,0-88.89,0-88.89,0,0,56.89,59.52,23.11,121.32,35.56-31.76,49.78-54.25,58.67-98.45-8.89,66.69-19.56,83.62-42.67,117.49,28.44-19.04,62.22-11.14,87.11-65.08,0,0-23.11,80.62-69.33,82.67s-92.44-4.39-92.44-4.39v-34.96Z"/>
  <path id="grass2" d="M348.44,118.6s1.78-75.34,53.33-80.08c-65.78-4.23-81.78,37.93-88.89,50.37-28.44-13.61,0-88.89,0-88.89,0,0-56.89,59.52-23.11,121.32-35.56-31.76-49.78-54.25-58.67-98.45,8.89,66.69,19.56,83.62,42.67,117.49-28.44-19.04-62.22-11.14-87.11-65.08,0,0,23.11,80.62,69.33,82.67s92.44-4.39,92.44-4.39v-34.96Z"/>
  <path id="grass1" d="M361.78,166.49s1.78-75.34,53.33-80.08c-65.78-4.23-81.78,37.93-88.89,50.37-28.44-13.61,0-88.89,0-88.89,0,0-56.89,59.52-23.11,121.32-35.56-31.76-49.78-54.25-58.67-98.45,8.89,66.69,19.56,83.62,42.67,117.49-28.44-19.04-62.22-11.14-87.11-65.08,0,0,23.11,80.62,69.33,82.67,46.22,2.05,92.44-4.39,92.44-4.39v-34.96Z"/>
</svg>