<?xml version="1.0" encoding="UTF-8"?>
<svg id="Layer_1" data-name="Layer 1" xmlns="http://www.w3.org/2000/svg" viewBox="0 0 254.23 254.22">
  <defs>
    <style>
      .cls-1 {
        fill: red;
      }
    </style>
  </defs>
  <g id="game">
    <g id="arc">
      <path class="cls-1" d="M171.56,36.24v11.32c14.52,8.25,26.62,20.4,34.77,35.11h11.28c-9.81-20.19-26.12-36.52-46.05-46.43ZM35.75,82.67h11.27c8.31-15.01,20.74-27.35,35.65-35.61v-11.26c-20.32,9.87-36.98,26.39-46.92,46.87Z"/>
      <path class="cls-1" d="M205.99,171.55c-8.12,14.46-20.05,26.36-34.43,34.44v11.17c8.42-4.17,16.29-9.56,23.36-16.04,9.27-8.51,16.78-18.55,22.26-29.57h-11.19ZM47.35,171.55h-11.18c5.47,11.02,12.98,21.06,22.25,29.57,7.31,6.71,15.49,12.24,24.25,16.47v-11.11c-14.77-8.08-27.03-20.17-35.32-34.93Z"/>
    </g>
    <path id="control" class="cls-1" d="M232,82.67h-60.44V22.22c0-12.27-9.95-22.22-22.22-22.22h-44.45c-12.27,0-22.22,9.95-22.22,22.22v60.45H22.23c-12.28,0-22.23,9.94-22.23,22.22v44.44c0,12.28,9.95,22.22,22.23,22.22h60.44v60.45c0,12.27,9.95,22.22,22.22,22.22h44.45c12.27,0,22.22-9.95,22.22-22.22v-60.45h60.44c12.28,0,22.23-9.94,22.23-22.22v-44.44c0-12.28-9.95-22.22-22.23-22.22ZM26.57,139.99l-1.28-1.32-10.92-11.43,10.78-11.57,1.27-1.35,9.54-10.12.1,15.02.06,7.89.02,3.45.09,19.46-9.66-10.03ZM111.7,26.79l3.92-3.73,11.49-10.86,11.5,10.86,4.09,3.89,7.33,6.98-22.92.03-22.91-.03,7.5-7.14ZM90.67,119.22c3.61-16.8,18.56-29.39,36.44-29.39,4.07,0,7.99.65,11.65,1.86.1.03.19.06.29.1,8.92,3,16.32,9.29,20.78,17.43,1.7,3.09,2.97,6.45,3.73,10,.22,1,.4,2.02.53,3.05h-25.52c-1.89-4.46-6.31-7.59-11.46-7.59s-9.57,3.13-11.45,7.59h-25.52c.13-1.03.31-2.05.53-3.05ZM134.94,126.97c0,1.06-.21,2.08-.6,3.01-1.18,2.82-3.97,4.81-7.22,4.81s-6.05-1.99-7.23-4.81c-.39-.93-.6-1.95-.6-3.01,0-1.55.45-3,1.23-4.22,1.39-2.17,3.83-3.61,6.6-3.61s5.2,1.44,6.58,3.61c.79,1.22,1.24,2.67,1.24,4.22ZM138.61,225.78l-1.42,1.34-10.08,9.51-9.96-9.41-1.53-1.44-11.4-10.86-.02-.02,22.91-.03,22.1.03h.82l-11.42,10.88ZM161.9,140.56c-5.4,13.94-18.94,23.83-34.79,23.83s-29.38-9.89-34.78-23.83c-1.22-3.15-2.02-6.5-2.34-10h25.18c1.5,5.19,6.28,8.98,11.94,8.98s10.45-3.79,11.95-8.98h25.18c-.32,3.5-1.12,6.85-2.34,10ZM228,138.55l-1.19,1.27-9.62,10.2-.14-19.46-.02-3.45-.03-7.89-.07-15.02,10.03,10.41.91.94,10.92,11.43-10.79,11.57Z"/>
  </g>
</svg>