<?xml version="1.0" encoding="UTF-8"?>
<svg id="Layer_1" data-name="Layer 1" xmlns="http://www.w3.org/2000/svg" xmlns:xlink="http://www.w3.org/1999/xlink" viewBox="0 0 1920 1080">
  <defs>
    <style>
      .cls-1 {
        stroke-width: 4.2px;
      }

      .cls-1, .cls-2, .cls-3 {
        fill: none;
      }

      .cls-1, .cls-3 {
        stroke: #000;
        stroke-miterlimit: 10;
      }

      .cls-3 {
        stroke-width: 2.1px;
      }

      .cls-4 {
        opacity: .1;
      }

      .cls-5 {
        clip-path: url(#clippath);
      }
    </style>
    <clipPath id="clippath">
      <rect class="cls-2" width="1920" height="1080"/>
    </clipPath>
  </defs>
  <g class="cls-5">
    <path class="cls-4" d="M-132.71,575.87c11.41-9.97,18.38-23.13,20.74-36.99l253.54,290.06c4.02,4.6,3.54,11.65-1.05,15.66l-43.57,38.08c-4.6,4.02-11.65,3.54-15.66-1.05l-253.62-290.16c14.11-.44,28.17-5.59,39.63-15.61Z"/>
    <path class="cls-4" d="M16.55,459.55l96.55,110.45c-14.04.49-28.01,5.64-39.42,15.61-11.46,10.02-18.44,23.26-20.78,37.18l-96.63-110.55c-4.02-4.6-3.54-11.65,1.05-15.66L.89,458.5c4.6-4.02,11.65-3.54,15.66,1.05Z"/>
    <path class="cls-4" d="M157.02,680.96c11.41-9.97,18.38-23.13,20.74-36.99l253.54,290.06c4.02,4.6,3.54,11.65-1.05,15.66l-43.57,38.08c-4.6,4.02-11.65,3.54-15.66-1.05l-253.62-290.16c14.11-.44,28.17-5.59,39.63-15.61Z"/>
    <g class="cls-4">
      <path d="M122.54,628.64c.85,1.31,1.36,2.87,1.37,4.55,0,1.15-.21,2.25-.63,3.26-1.25,3.06-4.25,5.23-7.77,5.26-3.52.03-6.55-2.1-7.85-5.15-.43-1-.67-2.1-.67-3.25-.01-1.68.47-3.25,1.3-4.56,1.48-2.36,4.1-3.93,7.1-3.95s5.63,1.51,7.15,3.85Z"/>
      <path d="M103.03,628.27l-27.58.2c2.42-19.8,19.22-35.21,39.7-35.36,20.48-.15,37.51,15.01,40.21,34.78l-27.58.2c-2.07-4.81-6.87-8.16-12.44-8.12s-10.32,3.46-12.32,8.3Z"/>
      <path d="M155.59,636.84c-1.73,20.52-18.86,36.7-39.85,36.85-20.99.15-38.36-15.78-40.38-36.27l27.21-.2c1.66,5.59,6.85,9.65,12.98,9.61s11.26-4.18,12.84-9.79l27.21-.2Z"/>
    </g>
    <path class="cls-4" d="M161.8,852.09l96.55,110.45c-14.04.49-28.01,5.64-39.42,15.61-11.46,10.02-18.44,23.26-20.78,37.18l-96.63-110.55c-4.02-4.6-3.54-11.65,1.05-15.66l43.57-38.08c4.6-4.02,11.65-3.54,15.66,1.05Z"/>
    <path class="cls-4" d="M302.27,1073.5c11.41-9.97,18.38-23.13,20.74-36.99l253.54,290.06c4.02,4.6,3.54,11.65-1.05,15.66l-43.57,38.08c-4.6,4.02-11.65,3.54-15.66-1.05l-253.62-290.16c14.11-.44,28.17-5.59,39.63-15.61Z"/>
    <g class="cls-4">
      <path d="M267.79,1021.17c.86,1.31,1.36,2.87,1.37,4.54,0,1.15-.21,2.25-.63,3.26-1.25,3.06-4.25,5.24-7.76,5.26-3.52.03-6.55-2.1-7.85-5.14-.43-1-.67-2.1-.68-3.25-.01-1.68.47-3.25,1.3-4.57,1.48-2.36,4.1-3.93,7.09-3.96,2.99-.02,5.63,1.51,7.15,3.85Z"/>
      <path d="M248.28,1020.81l-27.58.21c2.41-19.8,19.2-35.22,39.69-35.37,20.48-.16,37.51,14.99,40.23,34.76l-27.58.21c-2.08-4.81-6.87-8.15-12.44-8.11-5.57.04-10.32,3.46-12.31,8.3Z"/>
      <path d="M300.84,1029.36c-1.72,20.52-18.84,36.71-39.83,36.87-20.99.16-38.36-15.76-40.4-36.25l27.21-.21c1.66,5.59,6.86,9.65,12.98,9.6,6.12-.05,11.26-4.18,12.83-9.8l27.21-.21Z"/>
    </g>
    <path class="cls-4" d="M-45.12,155.11l96.55,110.45c-14.04.49-28.01,5.64-39.42,15.61s-18.44,23.26-20.78,37.18l-96.63-110.55c-4.02-4.6-3.54-11.65,1.05-15.66l43.57-38.08c4.6-4.02,11.65-3.54,15.66,1.05Z"/>
    <path class="cls-4" d="M95.35,376.52c11.41-9.97,18.38-23.13,20.74-36.99l253.54,290.06c4.02,4.6,3.54,11.65-1.05,15.66l-43.57,38.08c-4.6,4.02-11.65,3.54-15.66-1.05L55.71,392.13c14.11-.44,28.17-5.59,39.63-15.61Z"/>
    <g class="cls-4">
      <path class="cls-3" d="M60.98,324.38c.82,1.33,1.28,2.9,1.25,4.58-.02,1.15-.27,2.25-.71,3.24-1.32,3.03-4.38,5.12-7.9,5.06s-6.5-2.27-7.71-5.34c-.4-1.01-.61-2.11-.59-3.26.03-1.68.55-3.23,1.42-4.53,1.54-2.32,4.2-3.83,7.19-3.77s5.59,1.66,7.05,4.03Z"/>
      <path class="cls-1" d="M41.5,323.52l-27.58-.5c2.92-19.74,20.1-34.71,40.58-34.34,20.47.37,37.12,15.95,39.32,35.78l-27.58-.5c-1.95-4.86-6.66-8.33-12.23-8.43s-10.4,3.2-12.52,7.98Z"/>
      <path class="cls-1" d="M93.82,333.42c-2.24,20.47-19.78,36.21-40.77,35.83-20.99-.38-37.95-16.74-39.45-37.28l27.21.49c1.51,5.63,6.61,9.82,12.73,9.93s11.36-3.89,13.08-9.47l27.21.49Z"/>
    </g>
    <path class="cls-4" d="M244.48,260.31l96.55,110.45c-14.04.49-28.01,5.64-39.42,15.61-11.46,10.02-18.44,23.26-20.78,37.18l-96.63-110.55c-4.02-4.6-3.54-11.65,1.05-15.66l43.57-38.08c4.6-4.02,11.65-3.54,15.66,1.05Z"/>
    <path class="cls-4" d="M384.95,481.73c11.41-9.97,18.38-23.13,20.74-36.99l253.54,290.06c4.02,4.6,3.54,11.65-1.05,15.66l-43.57,38.08c-4.6,4.02-11.65,3.54-15.66-1.05l-253.62-290.16c14.11-.44,28.17-5.59,39.63-15.61Z"/>
    <g class="cls-4">
      <path class="cls-3" d="M350.55,429.52c.83,1.32,1.31,2.89,1.29,4.57-.01,1.15-.25,2.25-.68,3.25-1.3,3.04-4.34,5.16-7.85,5.13s-6.52-2.21-7.76-5.28c-.41-1.01-.63-2.11-.62-3.26.02-1.68.52-3.24,1.38-4.54,1.52-2.33,4.17-3.86,7.16-3.83,2.99.03,5.6,1.61,7.08,3.97Z"/>
      <path class="cls-1" d="M331.06,428.82l-27.58-.26c2.75-19.76,19.81-34.88,40.29-34.69s37.25,15.64,39.62,35.45l-27.58-.26c-1.99-4.84-6.73-8.27-12.3-8.32s-10.37,3.28-12.45,8.09Z"/>
      <path class="cls-1" d="M383.46,438.28c-2.07,20.48-19.47,36.38-40.46,36.18-20.99-.2-38.09-16.42-39.77-36.94l27.21.26c1.56,5.62,6.69,9.76,12.81,9.82,6.12.06,11.33-3.99,13-9.58l27.21.26Z"/>
    </g>
    <path class="cls-4" d="M455,956.71l96.55,110.45c-14.04.49-28.01,5.64-39.42,15.61-11.46,10.02-18.44,23.26-20.78,37.18l-96.63-110.55c-4.02-4.6-3.54-11.65,1.05-15.66l43.57-38.08c4.6-4.02,11.65-3.54,15.66,1.05Z"/>
    <path class="cls-4" d="M-50.17-16.2c11.41-9.97,18.38-23.13,20.74-36.99L224.1,236.87c4.02,4.6,3.54,11.65-1.05,15.66l-43.57,38.08c-4.6,4.02-11.65,3.54-15.66-1.05L-89.81-.59c14.11-.44,28.17-5.59,39.63-15.61Z"/>
    <path class="cls-4" d="M389.86,652.74l96.55,110.45c-14.04.49-28.01,5.64-39.42,15.61-11.46,10.02-18.44,23.26-20.78,37.18l-96.63-110.55c-4.02-4.6-3.54-11.65,1.05-15.66l43.57-38.08c4.6-4.02,11.65-3.54,15.66,1.05Z"/>
    <path class="cls-4" d="M530.32,874.16c11.41-9.97,18.38-23.13,20.74-36.99l253.54,290.06c4.02,4.6,3.54,11.65-1.05,15.66l-43.57,38.08c-4.6,4.02-11.65,3.54-15.66-1.05l-253.62-290.16c14.11-.44,28.17-5.59,39.63-15.61Z"/>
    <g class="cls-4">
      <path d="M495.79,821.76c.87,1.3,1.39,2.85,1.42,4.53.02,1.15-.19,2.25-.59,3.26-1.21,3.08-4.19,5.28-7.71,5.35-3.52.07-6.58-2.03-7.9-5.06-.44-.99-.69-2.09-.71-3.24-.03-1.68.43-3.25,1.25-4.58,1.46-2.37,4.06-3.98,7.05-4.03,2.99-.06,5.65,1.45,7.19,3.77Z"/>
      <path d="M476.28,821.6l-27.57.51c2.19-19.83,18.82-35.42,39.3-35.8,20.47-.38,37.67,14.59,40.6,34.32l-27.57.51c-2.13-4.78-6.96-8.08-12.53-7.97-5.56.1-10.28,3.57-12.22,8.43Z"/>
      <path d="M528.93,829.58c-1.5,20.53-18.44,36.91-39.43,37.3-20.99.39-38.53-15.35-40.79-35.81l27.21-.51c1.72,5.57,6.96,9.57,13.08,9.46,6.12-.11,11.21-4.31,12.72-9.94l27.21-.51Z"/>
    </g>
    <path class="cls-4" d="M679.69,757.43l96.55,110.45c-14.04.49-28.01,5.64-39.42,15.61-11.46,10.02-18.44,23.26-20.78,37.18l-96.63-110.55c-4.02-4.6-3.54-11.65,1.05-15.66l43.57-38.08c4.6-4.02,11.65-3.54,15.66,1.05Z"/>
    <path class="cls-4" d="M820.16,978.84c11.41-9.97,18.38-23.13,20.74-36.99l253.54,290.06c4.02,4.6,3.54,11.65-1.05,15.66l-43.57,38.08c-4.6,4.02-11.65,3.54-15.66-1.05l-253.62-290.16c14.11-.44,28.17-5.59,39.63-15.61Z"/>
    <g class="cls-4">
      <path d="M785.62,926.44c.87,1.3,1.39,2.85,1.42,4.53.02,1.15-.19,2.25-.59,3.26-1.21,3.08-4.19,5.28-7.71,5.35-3.52.07-6.58-2.03-7.9-5.06-.44-.99-.69-2.09-.71-3.24-.03-1.68.43-3.25,1.25-4.58,1.46-2.37,4.06-3.98,7.05-4.03,2.99-.06,5.65,1.45,7.19,3.77Z"/>
      <path d="M766.11,926.29l-27.57.51c2.19-19.83,18.82-35.42,39.3-35.8,20.47-.38,37.67,14.59,40.6,34.32l-27.57.51c-2.13-4.78-6.96-8.08-12.53-7.97-5.56.1-10.28,3.57-12.22,8.43Z"/>
      <path d="M818.77,934.27c-1.5,20.53-18.44,36.91-39.43,37.3-20.99.39-38.53-15.35-40.79-35.81l27.21-.51c1.72,5.57,6.96,9.57,13.08,9.46,6.12-.11,11.21-4.31,12.72-9.94l27.21-.51Z"/>
    </g>
    <path class="cls-4" d="M1372.16,39.57l96.55,110.45c-14.04.49-28.01,5.64-39.42,15.61-11.46,10.02-18.44,23.26-20.78,37.18l-96.63-110.55c-4.02-4.6-3.54-11.65,1.05-15.66l43.57-38.08c4.6-4.02,11.65-3.54,15.66,1.05Z"/>
    <path class="cls-4" d="M1512.62,260.99c11.41-9.97,18.38-23.13,20.74-36.99l253.54,290.06c4.02,4.6,3.54,11.65-1.05,15.66l-43.57,38.08c-4.6,4.02-11.65,3.54-15.66-1.05l-253.62-290.16c14.11-.44,28.17-5.59,39.63-15.61Z"/>
    <g class="cls-4">
      <path class="cls-3" d="M1478.11,208.62c.86,1.3,1.37,2.86,1.4,4.54.02,1.15-.2,2.25-.61,3.26-1.23,3.07-4.22,5.26-7.73,5.31-3.52.05-6.57-2.06-7.88-5.1-.43-1-.68-2.09-.7-3.24-.02-1.68.45-3.25,1.27-4.57,1.47-2.37,4.08-3.96,7.07-4,2.99-.04,5.64,1.48,7.17,3.8Z"/>
      <path class="cls-1" d="M1458.61,208.37l-27.58.37c2.29-19.82,19-35.33,39.48-35.61,20.48-.28,37.6,14.77,40.43,34.52l-27.58.37c-2.11-4.79-6.92-8.11-12.49-8.04s-10.29,3.52-12.26,8.37Z"/>
      <path class="cls-1" d="M1511.22,216.61c-1.6,20.53-18.63,36.82-39.62,37.1-20.99.29-38.46-15.54-40.61-36.01l27.21-.37c1.69,5.58,6.91,9.61,13.04,9.52,6.12-.08,11.23-4.25,12.77-9.87l27.21-.37Z"/>
    </g>
    <path class="cls-4" d="M1367.1-131.73c11.41-9.97,18.38-23.13,20.74-36.99l253.54,290.06c4.02,4.6,3.54,11.65-1.05,15.66l-43.57,38.08c-4.6,4.02-11.65,3.54-15.66-1.05l-253.62-290.16c14.11-.44,28.17-5.59,39.63-15.61Z"/>
    <path class="cls-4" d="M1661.88,144.67l96.55,110.45c-14.04.49-28.01,5.64-39.42,15.61-11.46,10.02-18.44,23.26-20.78,37.18l-96.63-110.55c-4.02-4.6-3.54-11.65,1.05-15.66l43.57-38.08c4.6-4.02,11.65-3.54,15.66,1.05Z"/>
    <path class="cls-4" d="M1802.35,366.08c11.41-9.97,18.38-23.13,20.74-36.99l253.54,290.06c4.02,4.6,3.54,11.65-1.05,15.66l-43.57,38.08c-4.6,4.02-11.65,3.54-15.66-1.05l-253.62-290.16c14.11-.44,28.17-5.59,39.63-15.61Z"/>
    <g class="cls-4">
      <path d="M1767.87,313.76c.85,1.31,1.36,2.87,1.37,4.55,0,1.15-.21,2.25-.63,3.26-1.25,3.06-4.25,5.23-7.77,5.26-3.52.03-6.55-2.1-7.85-5.15-.43-1-.67-2.1-.67-3.25-.01-1.68.47-3.25,1.3-4.56,1.48-2.36,4.1-3.93,7.1-3.95s5.63,1.51,7.15,3.85Z"/>
      <path d="M1748.37,313.39l-27.58.2c2.42-19.8,19.22-35.21,39.7-35.36,20.48-.15,37.51,15.01,40.21,34.78l-27.58.2c-2.07-4.81-6.87-8.16-12.44-8.12s-10.32,3.46-12.32,8.3Z"/>
      <path d="M1800.92,321.96c-1.73,20.52-18.86,36.7-39.85,36.85-20.99.15-38.36-15.78-40.38-36.27l27.21-.2c1.66,5.59,6.85,9.65,12.98,9.61s11.26-4.18,12.84-9.79l27.21-.2Z"/>
    </g>
    <path class="cls-4" d="M1807.13,537.21l96.55,110.45c-14.04.49-28.01,5.64-39.42,15.61-11.46,10.02-18.44,23.26-20.78,37.18l-96.63-110.55c-4.02-4.6-3.54-11.65,1.05-15.66l43.57-38.08c4.6-4.02,11.65-3.54,15.66,1.05Z"/>
    <path class="cls-4" d="M1947.6,758.62c11.41-9.97,18.38-23.13,20.74-36.99l253.54,290.06c4.02,4.6,3.54,11.65-1.05,15.66l-43.57,38.08c-4.6,4.02-11.65,3.54-15.66-1.05l-253.62-290.16c14.11-.44,28.17-5.59,39.63-15.61Z"/>
    <g class="cls-4">
      <path d="M1913.12,706.29c.86,1.31,1.36,2.87,1.37,4.54,0,1.15-.21,2.25-.63,3.26-1.25,3.06-4.25,5.24-7.76,5.26-3.52.03-6.55-2.1-7.85-5.14-.43-1-.67-2.1-.68-3.25-.01-1.68.47-3.25,1.3-4.57,1.48-2.36,4.1-3.93,7.09-3.96,2.99-.02,5.63,1.51,7.15,3.85Z"/>
      <path d="M1893.62,705.93l-27.58.21c2.41-19.8,19.2-35.22,39.69-35.37,20.48-.16,37.51,14.99,40.23,34.76l-27.58.21c-2.08-4.81-6.87-8.15-12.44-8.11-5.57.04-10.32,3.46-12.31,8.3Z"/>
      <path d="M1946.18,714.48c-1.72,20.52-18.84,36.71-39.83,36.87-20.99.16-38.36-15.76-40.4-36.25l27.21-.21c1.66,5.59,6.86,9.65,12.98,9.6,6.12-.05,11.26-4.18,12.83-9.8l27.21-.21Z"/>
    </g>
    <path class="cls-4" d="M1600.21-159.77l96.55,110.45c-14.04.49-28.01,5.64-39.42,15.61-11.46,10.02-18.44,23.26-20.78,37.18l-96.63-110.55c-4.02-4.6-3.54-11.65,1.05-15.66l43.57-38.08c4.6-4.02,11.65-3.54,15.66,1.05Z"/>
    <path class="cls-4" d="M1740.68,61.64c11.41-9.97,18.38-23.13,20.74-36.99l253.54,290.06c4.02,4.6,3.54,11.65-1.05,15.66l-43.57,38.08c-4.6,4.02-11.65,3.54-15.66-1.05l-253.62-290.16c14.11-.44,28.17-5.59,39.63-15.61Z"/>
    <g class="cls-4">
      <path class="cls-3" d="M1706.32,9.5c.82,1.33,1.28,2.9,1.25,4.58-.02,1.15-.27,2.25-.71,3.24-1.32,3.03-4.38,5.12-7.9,5.06s-6.5-2.27-7.71-5.34c-.4-1.01-.61-2.11-.59-3.26.03-1.68.55-3.23,1.42-4.53,1.54-2.32,4.2-3.83,7.19-3.77s5.59,1.66,7.05,4.03Z"/>
      <path class="cls-1" d="M1686.83,8.64l-27.58-.5c2.92-19.74,20.1-34.71,40.58-34.34,20.47.37,37.12,15.95,39.32,35.78l-27.58-.5c-1.95-4.86-6.66-8.33-12.23-8.43s-10.4,3.2-12.52,7.98Z"/>
      <path class="cls-1" d="M1739.15,18.54c-2.24,20.47-19.78,36.21-40.77,35.83-20.99-.38-37.95-16.74-39.45-37.28l27.21.49c1.51,5.63,6.61,9.82,12.73,9.93s11.36-3.89,13.08-9.47l27.21.49Z"/>
    </g>
    <path class="cls-4" d="M1889.82-54.57l96.55,110.45c-14.04.49-28.01,5.64-39.42,15.61-11.46,10.02-18.44,23.26-20.78,37.18L1829.53-1.87c-4.02-4.6-3.54-11.65,1.05-15.66l43.57-38.08c4.6-4.02,11.65-3.54,15.66,1.05Z"/>
  </g>
</svg>