<?xml version="1.0" encoding="UTF-8"?>
<svg id="Layer_2" data-name="Layer 2" xmlns="http://www.w3.org/2000/svg" viewBox="0 0 1595.56 1777.35">
  <defs>
    <style>
      .cls-1 {
        stroke-width: 4.54px;
      }

      .cls-1, .cls-2 {
        fill: none;
        stroke: #000;
        stroke-miterlimit: 10;
      }

      .cls-3 {
        opacity: .1;
      }

      .cls-2 {
        stroke-width: 2.27px;
      }
    </style>
  </defs>
  <g id="Layer_1-2" data-name="Layer 1">
    <path class="cls-3" d="M114.28,552.39l104.36,119.4c-15.18.53-30.28,6.09-42.61,16.87-12.39,10.83-19.94,25.14-22.46,40.19l-104.46-119.5c-4.34-4.97-3.83-12.59,1.14-16.93l47.09-41.17c4.97-4.34,12.59-3.83,16.93,1.14Z"/>
    <path class="cls-3" d="M266.12,791.73c12.33-10.78,19.86-25,22.42-39.98l274.07,313.54c4.34,4.97,3.83,12.59-1.14,16.93l-47.09,41.17c-4.97,4.34-12.59,3.83-16.93-1.14l-274.16-313.65c15.25-.48,30.45-6.04,42.84-16.87Z"/>
    <g class="cls-3">
      <path class="cls-2" d="M228.81,735.12c.93,1.41,1.49,3.09,1.51,4.9.02,1.25-.22,2.44-.66,3.53-1.33,3.32-4.56,5.69-8.36,5.74-3.8.05-7.1-2.23-8.52-5.51-.47-1.08-.73-2.26-.75-3.51-.02-1.81.48-3.51,1.38-4.94,1.59-2.56,4.41-4.28,7.64-4.32s6.1,1.6,7.75,4.11Z"/>
      <path class="cls-1" d="M207.73,734.85l-29.81.41c2.48-21.42,20.53-38.19,42.67-38.49,22.13-.3,40.65,15.97,43.7,37.32l-29.81.41c-2.28-5.18-7.48-8.77-13.5-8.69s-11.13,3.81-13.26,9.05Z"/>
      <path class="cls-1" d="M264.6,743.76c-1.73,22.19-20.14,39.8-42.82,40.11-22.69.31-41.57-16.8-43.9-38.93l29.41-.4c1.83,6.03,7.47,10.38,14.09,10.29,6.62-.09,12.14-4.59,13.81-10.67l29.41-.4Z"/>
    </g>
    <path class="cls-3" d="M108.81,367.21c12.33-10.78,19.86-25,22.42-39.98l274.07,313.54c4.34,4.97,3.83,12.59-1.14,16.93l-47.09,41.17c-4.97,4.34-12.59,3.83-16.93-1.14L65.97,384.09c15.25-.48,30.45-6.04,42.84-16.87Z"/>
    <path class="cls-3" d="M427.46,666l104.36,119.4c-15.18.53-30.28,6.09-42.61,16.87-12.39,10.83-19.94,25.14-22.46,40.19l-104.46-119.5c-4.34-4.97-3.83-12.59,1.14-16.93l47.09-41.17c4.97-4.34,12.59-3.83,16.93,1.14Z"/>
    <path class="cls-3" d="M579.3,905.33c12.33-10.78,19.86-25,22.42-39.98l274.07,313.54c4.34,4.97,3.83,12.59-1.14,16.93l-47.09,41.17c-4.97,4.34-12.59,3.83-16.93-1.14l-274.16-313.65c15.25-.48,30.45-6.04,42.84-16.87Z"/>
    <g class="cls-3">
      <path d="M542.03,848.78c.92,1.41,1.47,3.1,1.48,4.91,0,1.25-.23,2.43-.68,3.52-1.35,3.31-4.59,5.66-8.39,5.69-3.8.03-7.08-2.27-8.48-5.56-.46-1.08-.72-2.27-.73-3.51-.01-1.81.5-3.51,1.41-4.93,1.6-2.55,4.43-4.25,7.67-4.27s6.09,1.64,7.73,4.16Z"/>
      <path d="M520.94,848.37l-29.81.22c2.61-21.41,20.77-38.06,42.91-38.22,22.14-.16,40.54,16.22,43.47,37.59l-29.81.22c-2.24-5.2-7.43-8.82-13.44-8.77s-11.15,3.74-13.31,8.97Z"/>
      <path d="M577.76,857.64c-1.87,22.18-20.39,39.67-43.08,39.84-22.69.17-41.46-17.06-43.65-39.2l29.41-.21c1.79,6.04,7.41,10.43,14.03,10.38,6.62-.05,12.17-4.52,13.87-10.59l29.41-.21Z"/>
    </g>
    <path class="cls-3" d="M584.47,1090.31l104.36,119.4c-15.18.53-30.28,6.09-42.61,16.87-12.39,10.83-19.94,25.14-22.46,40.19l-104.46-119.5c-4.34-4.97-3.83-12.59,1.14-16.93l47.09-41.17c4.97-4.34,12.59-3.83,16.93,1.14Z"/>
    <path class="cls-3" d="M736.31,1329.65c12.33-10.78,19.86-25,22.42-39.98l274.07,313.54c4.34,4.97,3.83,12.59-1.14,16.93l-47.09,41.17c-4.97,4.34-12.59,3.83-16.93-1.14l-274.16-313.65c15.25-.48,30.45-6.04,42.84-16.87Z"/>
    <g class="cls-3">
      <path d="M699.04,1273.09c.92,1.41,1.47,3.1,1.48,4.91,0,1.25-.23,2.43-.68,3.52-1.35,3.31-4.59,5.66-8.39,5.69-3.8.03-7.09-2.27-8.48-5.56-.46-1.08-.72-2.26-.73-3.51-.01-1.81.5-3.51,1.41-4.94,1.6-2.55,4.43-4.25,7.67-4.28,3.24-.02,6.09,1.63,7.73,4.16Z"/>
      <path d="M677.95,1272.7l-29.81.23c2.6-21.41,20.76-38.07,42.9-38.24,22.14-.17,40.55,16.21,43.48,37.57l-29.81.23c-2.25-5.2-7.43-8.81-13.45-8.77-6.02.05-11.15,3.74-13.31,8.97Z"/>
      <path d="M734.77,1281.94c-1.86,22.18-20.37,39.68-43.06,39.85-22.69.17-41.47-17.04-43.67-39.19l29.41-.23c1.79,6.04,7.41,10.43,14.03,10.38,6.62-.05,12.17-4.52,13.87-10.59l29.41-.23Z"/>
    </g>
    <path class="cls-3" d="M360.79,336.91l104.36,119.4c-15.18.53-30.28,6.09-42.61,16.87s-19.94,25.14-22.46,40.19l-104.46-119.5c-4.34-4.97-3.83-12.59,1.14-16.93l47.09-41.17c4.97-4.34,12.59-3.83,16.93,1.14Z"/>
    <path class="cls-3" d="M512.64,576.25c12.33-10.78,19.86-25,22.42-39.98l274.07,313.54c4.34,4.97,3.83,12.59-1.14,16.93l-47.09,41.17c-4.97,4.34-12.59,3.83-16.93-1.14l-274.16-313.65c15.25-.48,30.45-6.04,42.84-16.87Z"/>
    <g class="cls-3">
      <path class="cls-2" d="M475.49,519.89c.89,1.44,1.39,3.14,1.35,4.95-.02,1.25-.29,2.43-.77,3.5-1.43,3.28-4.74,5.54-8.54,5.47s-7.02-2.45-8.34-5.78c-.44-1.09-.66-2.28-.64-3.53.03-1.81.59-3.49,1.53-4.9,1.67-2.51,4.54-4.14,7.78-4.08s6.04,1.79,7.62,4.35Z"/>
      <path class="cls-1" d="M454.42,518.95l-29.81-.54c3.15-21.33,21.73-37.52,43.87-37.12,22.13.4,40.12,17.24,42.5,38.68l-29.81-.54c-2.11-5.25-7.2-9-13.22-9.11-6.02-.11-11.24,3.46-13.54,8.63Z"/>
      <path class="cls-1" d="M510.99,529.65c-2.43,22.12-21.38,39.14-44.07,38.73-22.69-.41-41.02-18.1-42.65-40.3l29.41.53c1.64,6.09,7.14,10.62,13.76,10.73,6.62.12,12.28-4.21,14.14-10.23l29.41.53Z"/>
    </g>
    <path class="cls-3" d="M673.85,450.63l104.36,119.4c-15.18.53-30.28,6.09-42.61,16.87s-19.94,25.14-22.46,40.19l-104.46-119.5c-4.34-4.97-3.83-12.59,1.14-16.93l47.09-41.17c4.97-4.34,12.59-3.83,16.93,1.14Z"/>
    <path class="cls-3" d="M825.69,689.97c12.33-10.78,19.86-25,22.42-39.98l274.07,313.54c4.34,4.97,3.83,12.59-1.14,16.93l-47.09,41.17c-4.97,4.34-12.59,3.83-16.93-1.14l-274.16-313.65c15.25-.48,30.45-6.04,42.84-16.87Z"/>
    <g class="cls-3">
      <path class="cls-2" d="M788.5,633.54c.9,1.43,1.41,3.13,1.4,4.94-.01,1.25-.27,2.43-.74,3.51-1.4,3.29-4.69,5.58-8.49,5.54s-7.05-2.39-8.39-5.7c-.44-1.09-.68-2.28-.67-3.52.02-1.81.56-3.5,1.49-4.91,1.65-2.52,4.51-4.17,7.74-4.14s6.06,1.74,7.66,4.29Z"/>
      <path class="cls-1" d="M767.43,632.78l-29.81-.28c2.97-21.36,21.41-37.7,43.55-37.49,22.13.21,40.27,16.9,42.83,38.32l-29.81-.28c-2.16-5.23-7.28-8.94-13.29-9-6.02-.06-11.21,3.55-13.46,8.74Z"/>
      <path class="cls-1" d="M824.08,643c-2.24,22.14-21.05,39.32-43.74,39.11-22.69-.22-41.17-17.75-42.99-39.93l29.41.28c1.69,6.07,7.23,10.55,13.85,10.62,6.62.06,12.25-4.31,14.05-10.35l29.41.28Z"/>
    </g>
    <path class="cls-3" d="M901.4,1203.4l104.36,119.4c-15.18.53-30.28,6.09-42.61,16.87-12.39,10.83-19.94,25.14-22.46,40.19l-104.46-119.5c-4.34-4.97-3.83-12.59,1.14-16.93l47.09-41.17c4.97-4.34,12.59-3.83,16.93,1.14Z"/>
    <path class="cls-3" d="M1053.24,1442.74c12.33-10.78,19.86-25,22.42-39.98l274.07,313.54c4.34,4.97,3.83,12.59-1.14,16.93l-47.09,41.17c-4.97,4.34-12.59,3.83-16.93-1.14l-274.16-313.65c15.25-.48,30.45-6.04,42.84-16.87Z"/>
    <g class="cls-3">
      <path class="cls-2" d="M1016.06,1386.31c.9,1.43,1.41,3.13,1.4,4.94-.01,1.25-.27,2.43-.74,3.51-1.4,3.29-4.69,5.58-8.49,5.54-3.8-.04-7.05-2.39-8.39-5.7-.44-1.09-.68-2.28-.67-3.52.02-1.81.56-3.5,1.49-4.91,1.65-2.52,4.51-4.17,7.74-4.14,3.24.03,6.06,1.74,7.66,4.29Z"/>
      <path class="cls-1" d="M994.98,1385.56l-29.81-.28c2.97-21.36,21.41-37.7,43.55-37.49,22.13.21,40.27,16.9,42.83,38.32l-29.81-.28c-2.16-5.23-7.28-8.94-13.29-9s-11.21,3.55-13.46,8.74Z"/>
      <path class="cls-1" d="M1051.63,1395.78c-2.24,22.14-21.05,39.32-43.74,39.11-22.69-.22-41.17-17.75-42.99-39.93l29.41.28c1.69,6.07,7.23,10.55,13.85,10.62s12.25-4.31,14.05-10.35l29.41.28Z"/>
    </g>
    <path class="cls-3" d="M355.33,151.73c12.33-10.78,19.86-25,22.42-39.98l274.07,313.54c4.34,4.97,3.83,12.59-1.14,16.93l-47.09,41.17c-4.97,4.34-12.59,3.83-16.93-1.14L312.49,168.6c15.25-.48,30.45-6.04,42.84-16.87Z"/>
    <path class="cls-3" d="M830.99,874.83l104.36,119.4c-15.18.53-30.28,6.09-42.61,16.87-12.39,10.83-19.94,25.14-22.46,40.19l-104.46-119.5c-4.34-4.97-3.83-12.59,1.14-16.93l47.09-41.17c4.97-4.34,12.59-3.83,16.93,1.14Z"/>
    <path class="cls-3" d="M982.83,1114.17c12.33-10.78,19.86-25,22.42-39.98l274.07,313.54c4.34,4.97,3.83,12.59-1.14,16.93l-47.09,41.17c-4.97,4.34-12.59,3.83-16.93-1.14l-274.16-313.65c15.25-.48,30.45-6.04,42.84-16.87Z"/>
    <path class="cls-3" d="M42.84,39.98C55.17,29.2,62.71,14.98,65.26,0l274.07,313.54c4.34,4.97,3.83,12.59-1.14,16.93l-47.09,41.17c-4.97,4.34-12.59,3.83-16.93-1.14L0,56.85c15.25-.48,30.45-6.04,42.84-16.87Z"/>
    <g class="cls-3">
      <path d="M945.5,1057.53c.94,1.4,1.5,3.09,1.53,4.9.02,1.25-.2,2.44-.64,3.53-1.31,3.33-4.53,5.71-8.33,5.78-3.8.07-7.11-2.19-8.54-5.47-.47-1.08-.75-2.26-.77-3.5-.03-1.81.46-3.51,1.35-4.95,1.57-2.56,4.39-4.3,7.62-4.36,3.23-.06,6.11,1.57,7.77,4.07Z"/>
      <path d="M924.41,1057.36l-29.81.55c2.37-21.43,20.34-38.29,42.48-38.7,22.13-.41,40.72,15.77,43.89,37.1l-29.81.55c-2.3-5.17-7.53-8.73-13.54-8.62-6.02.11-11.11,3.86-13.21,9.12Z"/>
      <path d="M981.33,1065.99c-1.62,22.2-19.94,39.9-42.62,40.32-22.69.42-41.65-16.59-44.09-38.71l29.41-.55c1.86,6.02,7.53,10.35,14.14,10.22,6.62-.12,12.12-4.65,13.75-10.74l29.41-.55Z"/>
    </g>
    <path class="cls-3" d="M1144.29,988l104.36,119.4c-15.18.53-30.28,6.09-42.61,16.87-12.39,10.83-19.94,25.14-22.46,40.19l-104.46-119.5c-4.34-4.97-3.83-12.59,1.14-16.93l47.09-41.17c4.97-4.34,12.59-3.83,16.93,1.14Z"/>
    <path class="cls-3" d="M1296.13,1227.33c12.33-10.78,19.86-25,22.42-39.98l274.07,313.54c4.34,4.97,3.83,12.59-1.14,16.93l-47.09,41.17c-4.97,4.34-12.59,3.83-16.93-1.14l-274.16-313.65c15.25-.48,30.45-6.04,42.84-16.87Z"/>
    <g class="cls-3">
      <path d="M1258.8,1170.69c.94,1.4,1.5,3.09,1.53,4.9.02,1.25-.2,2.44-.64,3.53-1.31,3.33-4.53,5.71-8.33,5.78-3.8.07-7.11-2.19-8.54-5.47-.47-1.08-.75-2.26-.77-3.5-.03-1.81.46-3.51,1.35-4.95,1.57-2.56,4.39-4.3,7.62-4.36,3.23-.06,6.11,1.57,7.77,4.07Z"/>
      <path d="M1237.71,1170.53l-29.81.55c2.37-21.43,20.34-38.29,42.48-38.7,22.13-.41,40.72,15.77,43.89,37.1l-29.81.55c-2.3-5.17-7.53-8.73-13.54-8.62-6.02.11-11.11,3.86-13.21,9.12Z"/>
      <path d="M1294.63,1179.15c-1.62,22.2-19.94,39.9-42.62,40.32-22.69.42-41.65-16.59-44.09-38.71l29.41-.55c1.86,6.02,7.53,10.35,14.14,10.22s12.12-4.65,13.75-10.74l29.41-.55Z"/>
    </g>
  </g>
</svg>